<svg width="580" height="400" xmlns="http://www.w3.org/2000/svg">
 <!-- Created with Method Draw - http://github.com/duopixel/Method-Draw/ -->
 <g>
  <title>background</title>
  <rect fill="#fff" id="canvas_background" height="402" width="582" y="-1" x="-1"/>
  <g display="none" overflow="visible" y="0" x="0" height="100%" width="100%" id="canvasGrid">
   <rect fill="url(#gridpattern)" stroke-width="0" y="0" x="0" height="100%" width="100%"/>
  </g>
 </g>
 <g>
  <title>Layer 1</title>
  <path d="m258.5,193c3,0 6.466248,2.756348 11,12c6.707306,13.675232 8,27 8,36c0,5 0,7 -2,7c-6,0 -24.408844,0.740997 -43,-10c-19.458145,-11.241913 -36.935287,-23.893753 -42,-35c-3.421494,-7.502884 -5,-22 -5,-33c0,-12 14.027802,-24.881958 27,-28c16.035706,-3.854401 38,-5 60,-5c19,0 30.761475,1.044418 36,6c3.632263,3.436081 6.99707,10.885345 8,24c1.601257,20.938858 -1.532318,36.343704 -14,47c-9.524872,8.141037 -23,10 -31,10c-10,0 -24.395554,-1.140244 -36,-7c-5.205002,-2.628296 -7.011429,-4.034943 -4,-5c12.952621,-4.150864 33.00589,-6.543091 58,-6c23.016296,0.500122 37.038147,4.721695 41,9c3.038605,3.281311 2.945068,6.005646 4,16c1.901062,18.010712 2,26 2,30c0,1 1.965393,0.953308 6,-2c6.941406,-5.081039 25.839325,-24.434967 29,-38c2.506439,-10.757217 1.204315,-23.091141 -2,-30c-1.881653,-4.057022 -3.042908,-3.71022 -4,-4c-3.450836,-1.04483 -4,-2 -7,-3l-4,-1" id="svg_1" stroke-width="1.5" stroke="#000" fill="#FFAAB8"/>
 </g>
</svg>